<svg
xmlns="http://www.w3.org/2000/svg"
viewBox="0 0 19.19371 3.13113"
version="1.1"
>
<defs>
    <filter id="shadow">
    <feDropShadow dx="0.27" dy="0.27" stdDeviation="0.0"  flood-color="#4b1373" />
    </filter>
</defs>
<g
    id="layer1"
    transform="translate(-175.61148,-124.02253)"
    style="filter: url(#shadow)"
>
    <g id="g13174" class="name__highlights">
    <path
        d="m 178.75731,124.68718 v 0.52917 h 0.26458 v -0.52917 z"
        id="path3144-4"
    />
    <path
        d="m 178.22814,125.74552 v 0.52916 h 0.26459 v -0.52916 z"
        id="path3192-3"
    />
    <path
        d="m 179.02189,124.4226 v 0.26458 h 0.26459 v 0.79375 h -0.26459 -0.26458 v -0.26458 h -0.26458 v 0.52917 h 0.79375 v 0.52916 h 0.26458 0.26458 v -1.85208 z"
        id="path3172-4"
    />
    <path
        d="m 176.11148,125.74552 v 0.52916 h 0.26458 v -0.52916 z"
        id="path3188-2"
    />
    <path
        d="m 176.64064,124.4226 v 0.52917 h -0.26458 v 0.79375 h 0.26458 v -0.52917 h 0.26459 v 0.26458 h 0.26458 v -0.26458 h 0.26458 v 0.52917 h -0.26458 v 0.52916 h 0.52917 v -0.52916 h 0.26458 v -0.79375 h 0.26458 v -0.52917 h -0.52916 v 0.26458 h -0.26459 v 0.26459 h -0.26458 v -0.52917 z"
        id="path3190-0"
    />
    <path
        d="m 188.48436,124.43699 v 0.52917 h -0.26459 v 0.79375 h -0.26458 v 0.52917 h 1.5875 v -0.26459 h -1.05833 v -0.26458 h 0.26458 v -0.79375 h 0.26458 v -0.52917 z"
        id="path3394-2"
    />
    <path
        d="m 190.60102,124.43699 v 0.52917 h -0.26458 v 0.79375 h -0.26458 v 0.52917 h 1.5875 v -0.26459 h -1.05834 v -0.26458 h 0.26459 v -0.79375 h 0.26458 v -0.52917 z"
        id="path3394-3"
    />
    <path
        d="m 192.45311,124.43699 v 0.52917 h 0.26458 v 0.79375 h -0.26458 v 0.26458 h -0.26459 v 0.26459 h 0.52917 v -0.26459 h 0.26458 v -0.26458 h 0.26459 v -0.26458 h 0.26458 v -0.26459 h 0.26458 v -0.26458 h 0.26459 v -0.52917 h -0.26459 v 0.26459 h -0.26458 v 0.26458 h -0.52917 v -0.52917 z"
        id="path3436-0"
    />
    <path
        d="m 187.42602,124.43699 v 0.79375 h 0.26459 v -0.79375 z"
        id="path3086-0"
    />
    <path
        d="m 186.10311,124.43699 v 0.79375 h -0.26459 v 0.79375 h 0.26459 v 0.26459 h 1.05833 v -0.26459 h -0.79375 v -0.79375 h 0.26458 v -0.79375 z"
        id="path3106-7"
    />
    <path
        d="m 187.16144,125.23074 v 0.79375 h 0.26458 v -0.79375 z"
        id="path3108-9"
    />
    <path
        d="m 183.98644,124.43699 v 0.52917 h -0.26458 v 0.79375 h -0.26459 v 0.52917 h 0.52917 v -0.52917 h 0.26458 v -0.26458 h 0.52917 v 0.26458 h -0.26458 v 0.52917 h 0.52916 v -0.52917 h 0.26459 v -0.79375 h 0.26458 v -0.52917 h -0.52917 v 0.52917 h -0.26458 v 0.26458 h -0.52917 v -0.26458 h 0.26459 v -0.52917 z"
        id="path3422-2"
    />
    <path
        id="path3436-0-2-3"
        d="m 180.60939,124.4226 v 0.52917 h 0.26459 v 0.79375 h -0.26459 v 0.26458 h -0.26458 v 0.26458 h 0.52917 v -0.26458 h 0.26458 v -0.26458 h 0.26458 v 0.26458 h 0.26459 v 0.26458 h 0.52916 v -0.52916 h -0.26458 v -0.26459 -0.26458 -0.26458 h 0.26458 v -0.52917 h -0.26458 v 0.26458 h -0.26458 v 0.26459 h -0.52917 v -0.52917 z"
    />
    </g>
    <g id="g13212" class="name__shadows">
    <path
        d="m 179.02189,124.68718 v 0.52917 h -0.26458 v 0.26458 h 0.26458 0.26459 v -0.79375 z"
        id="path2594-3"
    />
    <path
        d="m 176.64064,125.21635 v 0.52917 h -0.26458 v 0.52916 h -0.26458 v 0.26459 h 0.26458 0.26458 v -0.52917 h 0.26459 v -0.26458 h 0.26458 0.26458 v -0.52917 h -0.26458 v 0.26458 h -0.26458 v -0.26458 z"
        id="path2640-8"
    />
    <path
        d="m 177.96356,124.95177 v 0.79375 h -0.26458 v 0.52916 h -0.26459 -0.26458 v 0.26459 h 0.52917 0.26458 v -0.52917 h 0.26458 v -1.05833 z"
        id="path2642-2"
    />
    <path
        d="m 178.49273,125.74552 v 0.52916 h -0.26459 v 0.26459 h 0.26459 0.26458 v -0.52917 h 0.26458 0.26459 v -0.26458 z"
        id="path2644-0"
    />
    <path
        d="m 179.81564,124.4226 v 1.85208 h -0.26458 -0.26458 v 0.26459 h 0.52916 0.26459 v -2.11667 z"
        id="path2646-0"
    />
    <path
        d="m 189.01352,124.43699 v 0.52917 h -0.26458 v 0.79375 h -0.26458 v 0.26458 h 0.26458 0.26458 v -0.79375 h 0.26459 v -0.79375 z"
        id="path2980-6"
    />
    <path
        d="m 189.54269,126.02449 v 0.26459 h -0.26458 -1.32292 v 0.26458 h 1.5875 0.26458 v -0.52917 z"
        id="path3012-9"
    />
    <path
        d="m 191.13019,124.43699 v 0.52917 h -0.26458 v 0.79375 h -0.26459 v 0.26458 h 0.26459 0.26458 v -0.79375 h 0.26458 v -0.79375 z"
        id="path2980-4"
    />
    <path
        d="m 191.65936,126.02449 v 0.26459 h -0.26459 -1.32291 v 0.26458 h 1.5875 0.26458 v -0.52917 z"
        id="path3012-2"
    />
    <path
        d="m 192.98227,124.43699 v 0.52917 h 0.26459 v -0.52917 z"
        id="path3040-2"
    />
    <path
        d="m 192.45311,124.96616 v 0.52917 h 0.26458 v -0.52917 z"
        id="path3052-0"
    />
    <path
        d="m 194.04061,124.43699 v 0.52917 h -0.26459 v 0.26458 h -0.26458 v 0.26459 h -0.26458 v 0.26458 h -0.26459 v 0.26458 h -0.26458 v 0.26459 h -0.26458 -0.26459 v 0.26458 h 0.79375 v -0.26458 h 0.26459 v -0.26459 h 0.26458 v -0.26458 h 0.26458 v -0.26458 h 0.26459 v -0.26459 h 0.26458 v -0.79375 z"
        id="path3076-6"
    />
    <path
        d="m 186.63227,124.43699 v 0.79375 h -0.26458 v 0.79375 h 0.26458 v -0.52916 h 0.26459 v -1.05834 z"
        id="path2506-5"
    />
    <path
        d="m 185.83852,126.02449 v 0.26459 h 0.26459 v -0.26459 z"
        id="path2520-0"
    />
    <path
        d="m 187.69061,124.43699 v 0.79375 h -0.26459 v 0.79375 h -0.26458 v 0.26459 h -0.26458 -0.79375 v 0.26458 h 1.32291 v -0.26458 h 0.26459 v -0.79375 h 0.26458 v -1.05834 z"
        id="path2542-8"
    />
    <path
        d="m 184.51561,124.43699 v 0.52917 h -0.26459 v 0.26458 h 0.26459 0.26458 v -0.79375 z"
        id="path3046-6"
    />
    <path
        d="m 184.25102,125.49533 v 0.26458 h 0.52917 v -0.26458 z"
        id="path3054-3"
    />
    <path
        d="m 183.98644,125.75991 v 0.52917 h -0.26458 -0.26459 v 0.26458 h 0.52917 0.26458 v -0.79375 z"
        id="path3064-9"
    />
    <path
        d="m 185.30936,124.96616 v 0.79375 h -0.26459 v 0.52917 h -0.26458 -0.26458 v 0.26458 h 0.52916 0.26459 v -0.52917 h 0.26458 v -1.05833 z"
        id="path3066-6"
    />
    <path
        d="m 182.19681,125.74551 v 0.52916 h -0.26458 -0.26459 v 0.26459 h 0.52917 0.26458 v -0.79375 z"
        id="path9684-1"
    />
    <path
        d="m 181.13848,124.42259 v 0.52917 h 0.26458 v -0.52917 z"
        id="path3040-2-6-2"
    />
    <path
        d="m 180.60931,124.95176 v 0.52916 h 0.26458 v -0.52916 z"
        id="path3052-0-4-0"
    />
    <path
        id="path3076-6-2-7"
        d="m 182.19697,124.42253 v 0.52917 h -0.26458 v 0.26458 0.26459 0.26458 h 0.26458 v -0.26458 -0.26459 h 0.26458 v -0.79375 z"
    />
    <path
        id="path12685-0"
        d="m 180.34481,126.27468 v 0.26459 h 0.79375 v -0.26459 h 0.26458 v -0.26458 -0.26458 h -0.26458 v 0.26458 h -0.26458 v 0.26458 h -0.26459 z"
    />
    <path
        d="m 177.16981,124.4226 v 0.52917 h 0.26458 v -0.52917 z"
        id="path2564-3"
    />
    </g>
</g>
</svg>
